<svg width="192" height="20" viewBox="0 0 192 20" fill="none" xmlns="http://www.w3.org/2000/svg">
<path d="M10.106 9.096C10.106 9.948 9.956 10.734 9.656 11.454C9.368 12.174 8.936 12.798 8.36 13.326C7.784 13.842 7.07 14.25 6.218 14.55C5.378 14.85 4.406 15 3.302 15H0.224V3.246H3.698C4.622 3.246 5.474 3.396 6.254 3.696C7.046 3.984 7.724 4.386 8.288 4.902C8.864 5.418 9.308 6.036 9.62 6.756C9.944 7.476 10.106 8.256 10.106 9.096ZM1.304 4.038V14.208H3.68C4.508 14.208 5.252 14.082 5.912 13.83C6.584 13.578 7.148 13.23 7.604 12.786C8.06 12.33 8.408 11.796 8.648 11.184C8.9 10.56 9.026 9.888 9.026 9.168C9.026 8.436 8.894 7.758 8.63 7.134C8.378 6.498 8.012 5.952 7.532 5.496C7.064 5.04 6.488 4.686 5.804 4.434C5.132 4.17 4.376 4.038 3.536 4.038H1.304ZM12.9382 0.959999C13.1782 0.959999 13.3882 1.038 13.5682 1.194C13.7602 1.338 13.8562 1.566 13.8562 1.878C13.8562 2.01 13.8142 2.19 13.7302 2.418C13.6582 2.634 13.5742 2.862 13.4782 3.102C13.3822 3.342 13.2802 3.57 13.1722 3.786C13.0762 3.99 13.0102 4.14 12.9742 4.236H12.2362L12.9022 2.724C12.7462 2.736 12.6142 2.718 12.5062 2.67C12.3982 2.61 12.3082 2.538 12.2362 2.454C12.1642 2.37 12.1102 2.28 12.0742 2.184C12.0502 2.076 12.0382 1.974 12.0382 1.878C12.0382 1.626 12.1222 1.41 12.2902 1.23C12.4702 1.05 12.6862 0.959999 12.9382 0.959999ZM15.2443 15L20.0683 3.246H21.3643L26.2243 15H25.1263L23.7043 11.562H17.7823L16.3783 15H15.2443ZM20.7523 4.344L18.1063 10.77H23.3803L20.7523 4.344ZM27.5756 15V2.508H28.6556V15H27.5756ZM31.1088 15V2.508H32.1888V15H31.1088ZM43.048 5.964C42.604 7.032 42.178 8.07 41.77 9.078C41.374 10.074 40.972 11.058 40.564 12.03C40.168 13.002 39.748 13.974 39.304 14.946C38.872 15.906 38.398 16.89 37.882 17.898C37.606 18.438 37.27 18.834 36.874 19.086C36.49 19.35 35.956 19.482 35.272 19.482C34.888 19.482 34.594 19.452 34.39 19.392C34.198 19.332 34.036 19.272 33.904 19.212L34.174 18.384C34.27 18.432 34.408 18.492 34.588 18.564C34.78 18.648 34.984 18.69 35.2 18.69C35.32 18.69 35.446 18.678 35.578 18.654C35.722 18.642 35.86 18.606 35.992 18.546C36.136 18.486 36.28 18.39 36.424 18.258C36.568 18.126 36.706 17.946 36.838 17.718C36.862 17.67 36.91 17.574 36.982 17.43C37.054 17.298 37.138 17.136 37.234 16.944C37.33 16.752 37.426 16.542 37.522 16.314C37.63 16.086 37.732 15.858 37.828 15.63L33.526 5.964H34.696L38.422 14.424C38.698 13.776 38.998 13.062 39.322 12.282C39.646 11.49 39.964 10.704 40.276 9.924C40.6 9.144 40.9 8.406 41.176 7.71C41.452 7.014 41.674 6.432 41.842 5.964H43.048ZM53.6778 15.27C52.9338 15.27 52.2498 15.15 51.6258 14.91C51.0138 14.67 50.4798 14.334 50.0238 13.902C49.5798 13.47 49.2318 12.96 48.9798 12.372C48.7398 11.784 48.6198 11.148 48.6198 10.464C48.6198 9.768 48.7398 9.126 48.9798 8.538C49.2318 7.938 49.5798 7.422 50.0238 6.99C50.4798 6.546 51.0138 6.204 51.6258 5.964C52.2498 5.712 52.9338 5.586 53.6778 5.586C54.4098 5.586 55.0818 5.712 55.6938 5.964C56.3178 6.204 56.8518 6.546 57.2958 6.99C57.7518 7.422 58.0998 7.938 58.3398 8.538C58.5918 9.126 58.7178 9.768 58.7178 10.464C58.7178 11.148 58.5918 11.784 58.3398 12.372C58.0998 12.96 57.7518 13.47 57.2958 13.902C56.8518 14.334 56.3178 14.67 55.6938 14.91C55.0818 15.15 54.4098 15.27 53.6778 15.27ZM53.6778 14.478C54.3258 14.478 54.8958 14.37 55.3878 14.154C55.8798 13.926 56.2938 13.626 56.6298 13.254C56.9658 12.882 57.2178 12.456 57.3858 11.976C57.5538 11.484 57.6378 10.98 57.6378 10.464C57.6378 9.936 57.5538 9.426 57.3858 8.934C57.2178 8.442 56.9658 8.01 56.6298 7.638C56.2938 7.254 55.8798 6.948 55.3878 6.72C54.8958 6.492 54.3258 6.378 53.6778 6.378C53.0298 6.378 52.4538 6.492 51.9498 6.72C51.4578 6.948 51.0438 7.254 50.7078 7.638C50.3718 8.01 50.1198 8.442 49.9518 8.934C49.7838 9.426 49.6998 9.936 49.6998 10.464C49.6998 10.98 49.7838 11.484 49.9518 11.976C50.1198 12.456 50.3718 12.882 50.7078 13.254C51.0438 13.626 51.4578 13.926 51.9498 14.154C52.4538 14.37 53.0298 14.478 53.6778 14.478ZM65.1601 5.586C66.0001 5.586 66.6901 5.736 67.2301 6.036C67.7701 6.336 68.1961 6.72 68.5081 7.188C68.8201 7.656 69.0361 8.184 69.1561 8.772C69.2761 9.348 69.3361 9.924 69.3361 10.5V15H68.2561V10.302C68.2561 9.714 68.1961 9.18 68.0761 8.7C67.9561 8.208 67.7701 7.794 67.5181 7.458C67.2661 7.11 66.9361 6.846 66.5281 6.666C66.1321 6.474 65.6461 6.378 65.0701 6.378C64.6141 6.378 64.1761 6.486 63.7561 6.702C63.3361 6.906 62.9701 7.194 62.6581 7.566C62.3461 7.926 62.0941 8.352 61.9021 8.844C61.7221 9.336 61.6321 9.864 61.6321 10.428V15H60.5521V5.964H61.6321V7.494C61.9441 6.918 62.4001 6.456 63.0001 6.108C63.6121 5.76 64.3321 5.586 65.1601 5.586ZM71.7845 15V2.508H72.8645V15H71.7845ZM74.8498 3.354C74.8498 3.078 74.9458 2.85 75.1378 2.67C75.3298 2.478 75.5698 2.382 75.8578 2.382C76.1458 2.382 76.3858 2.478 76.5778 2.67C76.7818 2.85 76.8838 3.078 76.8838 3.354C76.8838 3.63 76.7818 3.858 76.5778 4.038C76.3858 4.218 76.1458 4.308 75.8578 4.308C75.5698 4.308 75.3298 4.218 75.1378 4.038C74.9458 3.858 74.8498 3.63 74.8498 3.354ZM75.3178 15V5.964H76.3978V15H75.3178ZM83.459 5.586C84.299 5.586 84.989 5.736 85.529 6.036C86.069 6.336 86.495 6.72 86.807 7.188C87.119 7.656 87.335 8.184 87.455 8.772C87.575 9.348 87.635 9.924 87.635 10.5V15H86.555V10.302C86.555 9.714 86.495 9.18 86.375 8.7C86.255 8.208 86.069 7.794 85.817 7.458C85.565 7.11 85.235 6.846 84.827 6.666C84.431 6.474 83.945 6.378 83.369 6.378C82.913 6.378 82.475 6.486 82.055 6.702C81.635 6.906 81.269 7.194 80.957 7.566C80.645 7.926 80.393 8.352 80.201 8.844C80.021 9.336 79.931 9.864 79.931 10.428V15H78.851V5.964H79.931V7.494C80.243 6.918 80.699 6.456 81.299 6.108C81.911 5.76 82.631 5.586 83.459 5.586ZM98.5129 9.474C98.5609 9.714 98.5849 9.978 98.5849 10.266C98.5849 10.554 98.5729 10.764 98.5489 10.896H90.3229C90.3469 11.4 90.4489 11.874 90.6289 12.318C90.8209 12.75 91.0789 13.128 91.4029 13.452C91.7389 13.776 92.1409 14.028 92.6089 14.208C93.0769 14.388 93.6049 14.478 94.1929 14.478C94.7689 14.478 95.2909 14.4 95.7589 14.244C96.2389 14.076 96.6709 13.836 97.0549 13.524L97.4869 14.28C96.6829 14.928 95.5489 15.252 94.0849 15.252C93.3769 15.252 92.7289 15.132 92.1409 14.892C91.5529 14.652 91.0429 14.322 90.6109 13.902C90.1789 13.482 89.8429 12.978 89.6029 12.39C89.3629 11.802 89.2429 11.154 89.2429 10.446C89.2429 9.774 89.3569 9.144 89.5849 8.556C89.8129 7.956 90.1309 7.44 90.5389 7.008C90.9589 6.564 91.4509 6.216 92.0149 5.964C92.5909 5.712 93.2149 5.586 93.8869 5.586C94.5469 5.586 95.1349 5.682 95.6509 5.874C96.1789 6.054 96.6349 6.318 97.0189 6.666C97.4029 7.002 97.7209 7.41 97.9729 7.89C98.2249 8.358 98.4049 8.886 98.5129 9.474ZM97.4689 10.104C97.4449 9.528 97.3429 9.012 97.1629 8.556C96.9949 8.1 96.7549 7.71 96.4429 7.386C96.1429 7.062 95.7769 6.816 95.3449 6.648C94.9249 6.468 94.4509 6.378 93.9229 6.378C93.4549 6.378 93.0109 6.468 92.5909 6.648C92.1709 6.816 91.7989 7.062 91.4749 7.386C91.1509 7.71 90.8869 8.106 90.6829 8.574C90.4909 9.03 90.3829 9.54 90.3589 10.104H97.4689ZM113.73 15V13.272C113.454 13.692 113.142 14.034 112.794 14.298C112.446 14.55 112.086 14.748 111.714 14.892C111.342 15.036 110.964 15.132 110.58 15.18C110.196 15.228 109.836 15.252 109.5 15.252C108.876 15.252 108.276 15.132 107.7 14.892C107.124 14.652 106.608 14.322 106.152 13.902C105.708 13.47 105.348 12.96 105.072 12.372C104.808 11.784 104.676 11.136 104.676 10.428C104.676 9.744 104.802 9.108 105.054 8.52C105.306 7.92 105.654 7.404 106.098 6.972C106.542 6.54 107.058 6.204 107.646 5.964C108.234 5.712 108.864 5.586 109.536 5.586C109.788 5.586 110.094 5.61 110.454 5.658C110.826 5.694 111.204 5.79 111.588 5.946C111.972 6.09 112.35 6.3 112.722 6.576C113.106 6.852 113.442 7.224 113.73 7.692V5.964H114.81V15H113.73ZM105.756 10.482C105.756 11.058 105.858 11.592 106.062 12.084C106.266 12.576 106.548 13.002 106.908 13.362C107.268 13.71 107.688 13.986 108.168 14.19C108.66 14.382 109.188 14.478 109.752 14.478C110.316 14.478 110.838 14.382 111.318 14.19C111.81 13.986 112.23 13.71 112.578 13.362C112.938 13.002 113.22 12.576 113.424 12.084C113.628 11.592 113.73 11.058 113.73 10.482C113.73 9.906 113.628 9.372 113.424 8.88C113.22 8.376 112.938 7.938 112.578 7.566C112.23 7.194 111.81 6.906 111.318 6.702C110.838 6.486 110.316 6.378 109.752 6.378C109.188 6.378 108.66 6.486 108.168 6.702C107.688 6.906 107.268 7.194 106.908 7.566C106.548 7.938 106.266 8.376 106.062 8.88C105.858 9.372 105.756 9.906 105.756 10.482ZM122.659 6.432C122.587 6.42 122.515 6.408 122.443 6.396C122.383 6.384 122.317 6.378 122.245 6.378C122.185 6.366 122.125 6.36 122.065 6.36C121.501 6.36 120.985 6.462 120.517 6.666C120.061 6.858 119.671 7.116 119.347 7.44C119.023 7.764 118.771 8.148 118.591 8.592C118.423 9.024 118.339 9.48 118.339 9.96V15H117.259V5.964H118.339V7.458C118.591 7.05 118.879 6.72 119.203 6.468C119.527 6.216 119.857 6.024 120.193 5.892C120.541 5.76 120.877 5.676 121.201 5.64C121.537 5.592 121.825 5.568 122.065 5.568C122.161 5.568 122.275 5.574 122.407 5.586C122.551 5.586 122.665 5.598 122.749 5.622L122.659 6.432ZM124.673 6.018V3.768L125.753 3.336V6.018H128.507V6.81H125.753V12.858C125.753 13.422 125.879 13.824 126.131 14.064C126.395 14.304 126.719 14.442 127.103 14.478C127.307 14.502 127.535 14.484 127.787 14.424C128.051 14.352 128.285 14.268 128.489 14.172L128.741 14.964C128.573 15.048 128.333 15.12 128.021 15.18C127.709 15.252 127.409 15.282 127.121 15.27C126.629 15.258 126.221 15.174 125.897 15.018C125.585 14.862 125.339 14.664 125.159 14.424C124.979 14.184 124.853 13.92 124.781 13.632C124.709 13.332 124.673 13.032 124.673 12.732V6.81H123.125V6.018H124.673ZM144.289 15C144.289 15.756 144.157 16.416 143.893 16.98C143.641 17.544 143.305 18.006 142.885 18.366C142.465 18.738 141.979 19.02 141.427 19.212C140.875 19.404 140.305 19.506 139.717 19.518C139.225 19.542 138.757 19.506 138.313 19.41C137.869 19.326 137.449 19.2 137.053 19.032C136.669 18.864 136.321 18.66 136.009 18.42C135.697 18.18 135.433 17.916 135.217 17.628L135.955 16.944C136.459 17.616 137.041 18.084 137.701 18.348C138.373 18.612 139.027 18.732 139.663 18.708C140.827 18.648 141.709 18.294 142.309 17.646C142.909 16.998 143.209 16.056 143.209 14.82V13.272C142.933 13.692 142.621 14.034 142.273 14.298C141.925 14.55 141.565 14.748 141.193 14.892C140.821 15.036 140.443 15.132 140.059 15.18C139.675 15.228 139.315 15.252 138.979 15.252C138.355 15.252 137.755 15.132 137.179 14.892C136.603 14.652 136.087 14.322 135.631 13.902C135.187 13.47 134.827 12.96 134.551 12.372C134.287 11.784 134.155 11.136 134.155 10.428C134.155 9.744 134.281 9.108 134.533 8.52C134.785 7.92 135.133 7.404 135.577 6.972C136.021 6.54 136.537 6.204 137.125 5.964C137.713 5.712 138.343 5.586 139.015 5.586C139.267 5.586 139.573 5.61 139.933 5.658C140.305 5.694 140.683 5.79 141.067 5.946C141.451 6.09 141.829 6.3 142.201 6.576C142.585 6.852 142.921 7.224 143.209 7.692V5.964H144.289V15ZM135.235 10.482C135.235 11.058 135.337 11.592 135.541 12.084C135.745 12.576 136.027 13.002 136.387 13.362C136.747 13.71 137.167 13.986 137.647 14.19C138.139 14.382 138.667 14.478 139.231 14.478C139.795 14.478 140.317 14.382 140.797 14.19C141.289 13.986 141.709 13.71 142.057 13.362C142.417 13.002 142.699 12.576 142.903 12.084C143.107 11.592 143.209 11.058 143.209 10.482C143.209 9.906 143.107 9.372 142.903 8.88C142.699 8.376 142.417 7.938 142.057 7.566C141.709 7.194 141.289 6.906 140.797 6.702C140.317 6.486 139.795 6.378 139.231 6.378C138.667 6.378 138.139 6.486 137.647 6.702C137.167 6.906 136.747 7.194 136.387 7.566C136.027 7.938 135.745 8.376 135.541 8.88C135.337 9.372 135.235 9.906 135.235 10.482ZM155.18 15V13.272C154.904 13.692 154.592 14.034 154.244 14.298C153.896 14.55 153.536 14.748 153.164 14.892C152.792 15.036 152.414 15.132 152.03 15.18C151.646 15.228 151.286 15.252 150.95 15.252C150.326 15.252 149.726 15.132 149.15 14.892C148.574 14.652 148.058 14.322 147.602 13.902C147.158 13.47 146.798 12.96 146.522 12.372C146.258 11.784 146.126 11.136 146.126 10.428C146.126 9.744 146.252 9.108 146.504 8.52C146.756 7.92 147.104 7.404 147.548 6.972C147.992 6.54 148.508 6.204 149.096 5.964C149.684 5.712 150.314 5.586 150.986 5.586C151.238 5.586 151.544 5.61 151.904 5.658C152.276 5.694 152.654 5.79 153.038 5.946C153.422 6.09 153.8 6.3 154.172 6.576C154.556 6.852 154.892 7.224 155.18 7.692V5.964H156.26V15H155.18ZM147.206 10.482C147.206 11.058 147.308 11.592 147.512 12.084C147.716 12.576 147.998 13.002 148.358 13.362C148.718 13.71 149.138 13.986 149.618 14.19C150.11 14.382 150.638 14.478 151.202 14.478C151.766 14.478 152.288 14.382 152.768 14.19C153.26 13.986 153.68 13.71 154.028 13.362C154.388 13.002 154.67 12.576 154.874 12.084C155.078 11.592 155.18 11.058 155.18 10.482C155.18 9.906 155.078 9.372 154.874 8.88C154.67 8.376 154.388 7.938 154.028 7.566C153.68 7.194 153.26 6.906 152.768 6.702C152.288 6.486 151.766 6.378 151.202 6.378C150.638 6.378 150.11 6.486 149.618 6.702C149.138 6.906 148.718 7.194 148.358 7.566C147.998 7.938 147.716 8.376 147.512 8.88C147.308 9.372 147.206 9.906 147.206 10.482ZM158.708 15V2.508H159.788V15H158.708ZM162.242 15V2.508H163.322V15H162.242ZM174.433 9.474C174.481 9.714 174.505 9.978 174.505 10.266C174.505 10.554 174.493 10.764 174.469 10.896H166.243C166.267 11.4 166.369 11.874 166.549 12.318C166.741 12.75 166.999 13.128 167.323 13.452C167.659 13.776 168.061 14.028 168.529 14.208C168.997 14.388 169.525 14.478 170.113 14.478C170.689 14.478 171.211 14.4 171.679 14.244C172.159 14.076 172.591 13.836 172.975 13.524L173.407 14.28C172.603 14.928 171.469 15.252 170.005 15.252C169.297 15.252 168.649 15.132 168.061 14.892C167.473 14.652 166.963 14.322 166.531 13.902C166.099 13.482 165.763 12.978 165.523 12.39C165.283 11.802 165.163 11.154 165.163 10.446C165.163 9.774 165.277 9.144 165.505 8.556C165.733 7.956 166.051 7.44 166.459 7.008C166.879 6.564 167.371 6.216 167.935 5.964C168.511 5.712 169.135 5.586 169.807 5.586C170.467 5.586 171.055 5.682 171.571 5.874C172.099 6.054 172.555 6.318 172.939 6.666C173.323 7.002 173.641 7.41 173.893 7.89C174.145 8.358 174.325 8.886 174.433 9.474ZM173.389 10.104C173.365 9.528 173.263 9.012 173.083 8.556C172.915 8.1 172.675 7.71 172.363 7.386C172.063 7.062 171.697 6.816 171.265 6.648C170.845 6.468 170.371 6.378 169.843 6.378C169.375 6.378 168.931 6.468 168.511 6.648C168.091 6.816 167.719 7.062 167.395 7.386C167.071 7.71 166.807 8.106 166.603 8.574C166.411 9.03 166.303 9.54 166.279 10.104H173.389ZM181.757 6.432C181.685 6.42 181.613 6.408 181.541 6.396C181.481 6.384 181.415 6.378 181.343 6.378C181.283 6.366 181.223 6.36 181.163 6.36C180.599 6.36 180.083 6.462 179.615 6.666C179.159 6.858 178.769 7.116 178.445 7.44C178.121 7.764 177.869 8.148 177.689 8.592C177.521 9.024 177.437 9.48 177.437 9.96V15H176.357V5.964H177.437V7.458C177.689 7.05 177.977 6.72 178.301 6.468C178.625 6.216 178.955 6.024 179.291 5.892C179.639 5.76 179.975 5.676 180.299 5.64C180.635 5.592 180.923 5.568 181.163 5.568C181.259 5.568 181.373 5.574 181.505 5.586C181.649 5.586 181.763 5.598 181.847 5.622L181.757 6.432ZM191.583 5.964C191.139 7.032 190.713 8.07 190.305 9.078C189.909 10.074 189.507 11.058 189.099 12.03C188.703 13.002 188.283 13.974 187.839 14.946C187.407 15.906 186.933 16.89 186.417 17.898C186.141 18.438 185.805 18.834 185.409 19.086C185.025 19.35 184.491 19.482 183.807 19.482C183.423 19.482 183.129 19.452 182.925 19.392C182.733 19.332 182.571 19.272 182.439 19.212L182.709 18.384C182.805 18.432 182.943 18.492 183.123 18.564C183.315 18.648 183.519 18.69 183.735 18.69C183.855 18.69 183.981 18.678 184.113 18.654C184.257 18.642 184.395 18.606 184.527 18.546C184.671 18.486 184.815 18.39 184.959 18.258C185.103 18.126 185.241 17.946 185.373 17.718C185.397 17.67 185.445 17.574 185.517 17.43C185.589 17.298 185.673 17.136 185.769 16.944C185.865 16.752 185.961 16.542 186.057 16.314C186.165 16.086 186.267 15.858 186.363 15.63L182.061 5.964H183.231L186.957 14.424C187.233 13.776 187.533 13.062 187.857 12.282C188.181 11.49 188.499 10.704 188.811 9.924C189.135 9.144 189.435 8.406 189.711 7.71C189.987 7.014 190.209 6.432 190.377 5.964H191.583Z" fill="black"/>
</svg>
