<svg width="390" height="253" viewBox="0 0 390 253" fill="none" xmlns="http://www.w3.org/2000/svg">
    <defs>
        <clipPath id="clip0_211_4365">
            <rect width="390" height="253" fill="white"/>
        </clipPath>
    </defs>
    <g clip-path="url(#clip0_211_4365)">
        <path d="M205.265 76.3641C102.879 102.5 113.857 171.5 29.6205 234.212C18.6626 242.37 8.63792 245.984 -0.500052 246.028L-0.500045 -1.05864e-05L116 -6.42249e-06L254.866 -3.94256e-05C260.712 33.4247 246.897 65.7371 205.265 76.3641Z" fill="#F4F4F4"/>
        <path d="M331 0C300.203 40.1832 253.69 104.65 146.877 117.548C41.7597 130.242 5.59194 154.61 4.56352e-06 177" stroke="#383F7B" stroke-width="2"/>
        <path d="M129 0C147.633 31.421 205.062 98.1785 285.72 113.841C366.377 129.503 389.514 165.806 391 182" stroke="#383F7B" stroke-width="2"/>
    </g>
</svg>
