<svg width="390" height="130" viewBox="0 0 390 130" fill="none" xmlns="http://www.w3.org/2000/svg">
<g clip-path="url(#clip0_552_5701)">
<path d="M347.353 81.4816C347.656 79.4768 345.239 76.984 333.154 83.0505C318.048 90.6337 313.818 81.7431 317.142 74.9444C320.465 68.1457 321.673 60.301 322.278 60.5625C322.576 60.6917 327.502 60.6946 332.696 60.6573C338.192 60.6178 343.327 63.5351 345.486 68.5891C347.048 72.2471 348.666 76.6051 349.77 80.9587C352.385 91.2671 331.817 82.7192 331.572 108.312C331.552 110.436 332.132 112.539 333.1 114.429C335.482 119.076 336.658 120.302 344.332 120.966C353.396 121.751 321.975 121.751 321.069 120.966C320.163 120.182 328.018 120.966 331.341 114.952C334.664 108.938 333.758 96.648 330.435 93.5101C327.111 90.3723 307.172 75.2059 299.014 101.093C297.504 109.461 297.806 99.7859 297.806 94.2946C297.806 89.9016 297.806 72.068 297.806 63.7004C297.533 61.6504 298.001 56.8472 301.671 52.6976C302.467 51.7973 303.287 50.9065 303.948 49.9027C307.018 45.2407 306.265 45.6184 306.265 42.5198C306.265 40.5832 306.265 34.43 306.265 30.0656C306.265 27.4312 307.435 25.149 310.066 25.0236C310.386 25.0083 310.73 25 311.099 25C315.329 25 315.933 25.7845 316.235 26.3074C316.537 26.8304 316.839 29.7068 309.286 29.4453C301.734 29.1838 305.963 26.046 307.776 26.046C308.948 26.046 312.171 26.046 314.481 26.046C315.433 26.046 316.51 26.2121 316.955 27.0534C317.182 27.4843 317.232 27.9997 316.875 28.5495C316.431 29.2354 315.933 29.9354 315.933 30.7528V30.7528C315.933 31.7987 315.933 39.7306 315.933 43.5657C315.933 45.1347 316.356 48.6386 318.048 50.103C319.047 50.9679 320.517 52.8486 321.823 54.6564C323.357 56.7793 324.177 59.3224 324.273 61.9395C324.339 63.7361 324.392 65.7884 324.392 67.6227C324.392 71.179 324.392 100.658 324.392 114.952C324.594 116.521 323.607 119.659 318.048 119.659C313.664 119.659 307.989 119.659 304.255 119.659C302.585 119.659 300.837 119.471 299.585 118.365C298.404 117.32 297.356 115.684 297.504 113.383C297.806 108.677 293.878 105.016 288.44 107.108C283.002 109.199 284.076 118.428 294.181 115.998C304.327 113.559 301.327 127.959 292.049 125.021C290.603 124.563 289.382 123.567 288.417 122.397C288.15 122.073 287.935 121.791 287.767 121.548C284.736 117.184 289.31 129.964 283.997 130C283.239 130.005 282.405 129.883 281.492 129.596C274.845 127.504 278.47 119.398 279.981 119.659C281.492 119.921 278.47 124.889 275.449 124.889C272.428 124.889 266.99 123.581 269.709 117.829C272.428 112.076 278.168 114.952 279.377 115.998C280.231 116.738 286.93 121.228 289.347 114.691C291.764 108.154 280.283 108.154 278.773 110.768C277.262 113.383 280.585 116.26 281.492 108.677C282.398 101.093 268.5 102.924 268.5 107.631C268.5 112.337 271.824 114.168 272.73 112.86C273.637 111.553 267.896 110.768 266.084 112.337C264.361 113.828 263.667 116.783 265.781 118.613C267.896 120.444 263.667 121.751 265.781 117.829C267.896 113.906 263.364 111.291 259.437 111.553C255.509 111.814 253.697 120.182 259.135 120.705C264.573 121.228 257.624 115.998 254.603 118.09C251.815 120.021 247.74 126.184 255.441 127.328C256.873 127.54 258.365 127.366 259.697 126.8C266.342 123.977 261.25 119.282 261.25 123.843C261.25 128.811 269.407 131.688 272.73 125.412" stroke="black" stroke-opacity="0.35" stroke-linecap="round"/>
<path d="M329.559 79.6528C334.698 80.8717 340.473 79.5754 344.27 78.2063C346.188 77.5147 348.196 76.9337 350.21 77.2558C354.812 77.9919 360.474 80.477 359.968 86.7269C359.182 96.4537 338.734 92.2535 324.84 91.1482C310.946 90.0428 321.17 77.6632 329.559 79.6528Z" fill="black" fill-opacity="0.2"/>
<path d="M300.885 89.2047C308.708 78.0747 315.782 83.1835 318.304 89.608C319.36 92.2974 320.516 95.1222 321.345 97.89C322.831 102.851 322.43 110.435 319.317 116.667C314.133 127.044 310.585 120.383 298.239 118.12C285.894 115.856 288.911 106.239 300.885 89.2047Z" fill="black" fill-opacity="0.25"/>
</g>
<defs>
<clipPath id="clip0_552_5701">
<rect width="390" height="130" fill="white"/>
</clipPath>
</defs>
</svg>
