<svg width="28" height="28" viewBox="0 0 28 28" fill="none" xmlns="http://www.w3.org/2000/svg">
<path d="M14 2.15381H11.7072V5.59301L9.41435 6.35728L7.12155 4.06448L4.06448 7.12155L6.35728 9.41435L5.59301 11.7072H2.15381V16.2928H5.59301L6.35728 18.5856L4.06448 20.8784L7.12155 23.9354L9.41435 21.6426L11.7072 22.4069V25.8461H14H16.2928V22.4069L18.5856 21.6426L20.8784 23.9354L23.9354 20.8784L21.6426 18.5856L22.4069 16.2928H25.8461V11.7072H22.4069L21.6426 9.41435L23.9354 7.12155L20.8784 4.06448L18.5856 6.35728L16.2928 5.59301V2.15381H14Z" stroke="#7D7D7D" stroke-width="2" stroke-miterlimit="10"/>
<path d="M13.9999 16.1539C15.1895 16.1539 16.1538 15.1896 16.1538 14C16.1538 12.8105 15.1895 11.8462 13.9999 11.8462C12.8104 11.8462 11.8461 12.8105 11.8461 14C11.8461 15.1896 12.8104 16.1539 13.9999 16.1539Z" stroke="#7D7D7D" stroke-width="2" stroke-miterlimit="10"/>
</svg>
