<svg width="30" height="31" viewBox="0 0 30 31" fill="none" xmlns="http://www.w3.org/2000/svg">
<path d="M1.15381 12.5356L14.7656 21.3534L28.3774 12.5356" stroke="white" stroke-width="2" stroke-miterlimit="10"/>
<path d="M5.69136 10.5693L1.15381 12.5353V29.3232H28.3774V12.5353L23.8398 10.5693" stroke="white" stroke-width="2" stroke-miterlimit="10"/>
<path d="M5.54468 15.2579V1.19238H23.9864V15.2579" stroke="white" stroke-width="2" stroke-miterlimit="10"/>
<path d="M10.3125 9.20312C10.3125 12.432 15 15.0156 15 15.0156C15 15.0156 19.6875 12.432 19.6875 9.20312C19.6875 7.86528 18.75 6.78125 17.3438 6.78125C16.0491 6.78125 15 7.86528 15 9.20312C15 7.86528 13.9509 6.78125 12.6562 6.78125C11.25 6.78125 10.3125 7.86528 10.3125 9.20312Z" fill="white" stroke="white" stroke-width="1.5" stroke-miterlimit="10"/>
</svg>
