<svg width="144" height="93" viewBox="0 0 144 93" fill="none" xmlns="http://www.w3.org/2000/svg">
    <g clip-path="url(#clip0_409_6263)">
        <defs>
            <clipPath id="clip0_409_6263">
                <rect width="144" height="93" fill="white" />
            </clipPath>
        </defs>
        <circle cx="36.5" cy="52.5" r="2.5" fill="white" fill-opacity="0.2" />
        <circle cx="36.5" cy="59.5" r="2.5" fill="white" fill-opacity="0.2" />
        <circle cx="36.5" cy="66.5" r="2.5" fill="white" fill-opacity="0.2" />
        <circle cx="36.5" cy="73.5" r="2.5" fill="white" fill-opacity="0.2" />
        <circle cx="36.5" cy="80.5" r="2.5" fill="white" fill-opacity="0.2" />
        <circle cx="36.5" cy="87.5" r="2.5" fill="white" fill-opacity="0.2" />
        <circle cx="36.5" cy="94.5" r="2.5" fill="white" fill-opacity="0.2" />
        <circle cx="43.5" cy="52.5" r="2.5" fill="white" fill-opacity="0.2" />
        <circle cx="43.5" cy="59.5" r="2.5" fill="white" fill-opacity="0.2" />
        <circle cx="43.5" cy="66.5" r="2.5" fill="white" fill-opacity="0.2" />
        <circle cx="43.5" cy="73.5" r="2.5" fill="white" fill-opacity="0.2" />
        <circle cx="43.5" cy="80.5" r="2.5" fill="white" fill-opacity="0.2" />
        <circle cx="43.5" cy="87.5" r="2.5" fill="white" fill-opacity="0.2" />
        <circle cx="43.5" cy="94.5" r="2.5" fill="white" fill-opacity="0.2" />
        <circle cx="50.5" cy="52.5" r="2.5" fill="white" fill-opacity="0.2" />
        <circle cx="50.5" cy="59.5" r="2.5" fill="white" fill-opacity="0.2" />
        <circle cx="50.5" cy="66.5" r="2.5" fill="white" fill-opacity="0.2" />
        <circle cx="50.5" cy="73.5" r="2.5" fill="white" fill-opacity="0.2" />
        <circle cx="50.5" cy="80.5" r="2.5" fill="white" fill-opacity="0.2" />
        <circle cx="50.5" cy="87.5" r="2.5" fill="white" fill-opacity="0.2" />
        <circle cx="50.5" cy="94.5" r="2.5" fill="white" fill-opacity="0.2" />
        <circle cx="57.5" cy="52.5" r="2.5" fill="white" fill-opacity="0.2" />
        <circle cx="57.5" cy="59.5" r="2.5" fill="white" fill-opacity="0.2" />
        <circle cx="57.5" cy="66.5" r="2.5" fill="white" fill-opacity="0.2" />
        <circle cx="57.5" cy="73.5" r="2.5" fill="white" fill-opacity="0.2" />
        <circle cx="57.5" cy="80.5" r="2.5" fill="white" fill-opacity="0.2" />
        <circle cx="57.5" cy="87.5" r="2.5" fill="white" fill-opacity="0.2" />
        <circle cx="57.5" cy="94.5" r="2.5" fill="white" fill-opacity="0.2" />
        <circle cx="64.5" cy="52.5" r="2.5" fill="white" fill-opacity="0.2" />
        <circle cx="64.5" cy="59.5" r="2.5" fill="white" fill-opacity="0.2" />
        <circle cx="64.5" cy="66.5" r="2.5" fill="white" fill-opacity="0.2" />
        <circle cx="64.5" cy="73.5" r="2.5" fill="white" fill-opacity="0.2" />
        <circle cx="64.5" cy="80.5" r="2.5" fill="white" fill-opacity="0.2" />
        <circle cx="64.5" cy="87.5" r="2.5" fill="white" fill-opacity="0.2" />
        <circle cx="64.5" cy="94.5" r="2.5" fill="white" fill-opacity="0.2" />
        <circle cx="71.5" cy="52.5" r="2.5" fill="white" fill-opacity="0.2" />
        <circle cx="71.5" cy="59.5" r="2.5" fill="white" fill-opacity="0.2" />
        <circle cx="71.5" cy="66.5" r="2.5" fill="white" fill-opacity="0.2" />
        <circle cx="71.5" cy="73.5" r="2.5" fill="white" fill-opacity="0.2" />
        <circle cx="71.5" cy="80.5" r="2.5" fill="white" fill-opacity="0.2" />
        <circle cx="71.5" cy="87.5" r="2.5" fill="white" fill-opacity="0.2" />
        <circle cx="71.5" cy="94.5" r="2.5" fill="white" fill-opacity="0.2" />
        <circle cx="78.5" cy="52.5" r="2.5" fill="white" fill-opacity="0.2" />
        <circle cx="78.5" cy="59.5" r="2.5" fill="white" fill-opacity="0.2" />
        <circle cx="78.5" cy="66.5" r="2.5" fill="white" fill-opacity="0.2" />
        <circle cx="78.5" cy="73.5" r="2.5" fill="white" fill-opacity="0.2" />
        <circle cx="78.5" cy="80.5" r="2.5" fill="white" fill-opacity="0.2" />
        <circle cx="78.5" cy="87.5" r="2.5" fill="white" fill-opacity="0.2" />
        <circle cx="78.5" cy="94.5" r="2.5" fill="white" fill-opacity="0.2" />
        <circle cx="85.5" cy="52.5" r="2.5" fill="white" fill-opacity="0.2" />
        <circle cx="85.5" cy="59.5" r="2.5" fill="white" fill-opacity="0.2" />
        <circle cx="85.5" cy="66.5" r="2.5" fill="white" fill-opacity="0.2" />
        <circle cx="85.5" cy="73.5" r="2.5" fill="white" fill-opacity="0.2" />
        <circle cx="85.5" cy="80.5" r="2.5" fill="white" fill-opacity="0.2" />
        <circle cx="85.5" cy="87.5" r="2.5" fill="white" fill-opacity="0.2" />
        <circle cx="85.5" cy="94.5" r="2.5" fill="white" fill-opacity="0.2" />
        <circle cx="92.5" cy="52.5" r="2.5" fill="white" fill-opacity="0.2" />
        <circle cx="92.5" cy="59.5" r="2.5" fill="white" fill-opacity="0.2" />
        <circle cx="92.5" cy="66.5" r="2.5" fill="white" fill-opacity="0.2" />
        <circle cx="92.5" cy="73.5" r="2.5" fill="white" fill-opacity="0.2" />
        <circle cx="92.5" cy="80.5" r="2.5" fill="white" fill-opacity="0.2" />
        <circle cx="92.5" cy="87.5" r="2.5" fill="white" fill-opacity="0.2" />
        <circle cx="92.5" cy="94.5" r="2.5" fill="white" fill-opacity="0.2" />
        <circle cx="99.5" cy="52.5" r="2.5" fill="white" fill-opacity="0.2" />
        <circle cx="99.5" cy="59.5" r="2.5" fill="white" fill-opacity="0.2" />
        <circle cx="99.5" cy="66.5" r="2.5" fill="white" fill-opacity="0.2" />
        <circle cx="99.5" cy="73.5" r="2.5" fill="white" fill-opacity="0.2" />
        <circle cx="99.5" cy="80.5" r="2.5" fill="white" fill-opacity="0.2" />
        <circle cx="99.5" cy="87.5" r="2.5" fill="white" fill-opacity="0.2" />
        <circle cx="99.5" cy="94.5" r="2.5" fill="white" fill-opacity="0.2" />
        <circle cx="106.5" cy="52.5" r="2.5" fill="white" fill-opacity="0.2" />
        <circle cx="106.5" cy="59.5" r="2.5" fill="white" fill-opacity="0.2" />
        <circle cx="106.5" cy="66.5" r="2.5" fill="white" fill-opacity="0.2" />
        <circle cx="106.5" cy="73.5" r="2.5" fill="white" fill-opacity="0.2" />
        <circle cx="106.5" cy="80.5" r="2.5" fill="white" fill-opacity="0.2" />
        <circle cx="106.5" cy="87.5" r="2.5" fill="white" fill-opacity="0.2" />
        <circle cx="106.5" cy="94.5" r="2.5" fill="white" fill-opacity="0.2" />
        <circle cx="113.5" cy="52.5" r="2.5" fill="white" fill-opacity="0.2" />
        <circle cx="113.5" cy="59.5" r="2.5" fill="white" fill-opacity="0.2" />
        <circle cx="113.5" cy="66.5" r="2.5" fill="white" fill-opacity="0.2" />
        <circle cx="113.5" cy="73.5" r="2.5" fill="white" fill-opacity="0.2" />
        <circle cx="113.5" cy="80.5" r="2.5" fill="white" fill-opacity="0.2" />
        <circle cx="113.5" cy="87.5" r="2.5" fill="white" fill-opacity="0.2" />
        <circle cx="113.5" cy="94.5" r="2.5" fill="white" fill-opacity="0.2" />
        <circle cx="120.5" cy="52.5" r="2.5" fill="white" fill-opacity="0.2" />
        <circle cx="120.5" cy="59.5" r="2.5" fill="white" fill-opacity="0.2" />
        <circle cx="120.5" cy="66.5" r="2.5" fill="white" fill-opacity="0.2" />
        <circle cx="120.5" cy="73.5" r="2.5" fill="white" fill-opacity="0.2" />
        <circle cx="120.5" cy="80.5" r="2.5" fill="white" fill-opacity="0.2" />
        <circle cx="120.5" cy="87.5" r="2.5" fill="white" fill-opacity="0.2" />
        <circle cx="120.5" cy="94.5" r="2.5" fill="white" fill-opacity="0.2" />
        <circle cx="127.5" cy="52.5" r="2.5" fill="white" fill-opacity="0.2" />
        <circle cx="127.5" cy="59.5" r="2.5" fill="white" fill-opacity="0.2" />
        <circle cx="127.5" cy="66.5" r="2.5" fill="white" fill-opacity="0.2" />
        <circle cx="127.5" cy="73.5" r="2.5" fill="white" fill-opacity="0.2" />
        <circle cx="127.5" cy="80.5" r="2.5" fill="white" fill-opacity="0.2" />
        <circle cx="127.5" cy="87.5" r="2.5" fill="white" fill-opacity="0.2" />
        <circle cx="127.5" cy="94.5" r="2.5" fill="white" fill-opacity="0.2" />
        <circle cx="134.5" cy="52.5" r="2.5" fill="white" fill-opacity="0.2" />
        <circle cx="134.5" cy="59.5" r="2.5" fill="white" fill-opacity="0.2" />
        <circle cx="134.5" cy="66.5" r="2.5" fill="white" fill-opacity="0.2" />
        <circle cx="134.5" cy="73.5" r="2.5" fill="white" fill-opacity="0.2" />
        <circle cx="134.5" cy="80.5" r="2.5" fill="white" fill-opacity="0.2" />
        <circle cx="134.5" cy="87.5" r="2.5" fill="white" fill-opacity="0.2" />
        <circle cx="134.5" cy="94.5" r="2.5" fill="white" fill-opacity="0.2" />
        <circle cx="141.5" cy="52.5" r="2.5" fill="white" fill-opacity="0.2" />
        <circle cx="141.5" cy="59.5" r="2.5" fill="white" fill-opacity="0.2" />
        <circle cx="141.5" cy="66.5" r="2.5" fill="white" fill-opacity="0.2" />
        <circle cx="141.5" cy="73.5" r="2.5" fill="white" fill-opacity="0.2" />
        <circle cx="141.5" cy="80.5" r="2.5" fill="white" fill-opacity="0.2" />
        <circle cx="141.5" cy="87.5" r="2.5" fill="white" fill-opacity="0.2" />
        <circle cx="141.5" cy="94.5" r="2.5" fill="white" fill-opacity="0.2" />
        <path
            d="M96 0.5C96 39.4361 64.4361 71 25.5 71C-13.4361 71 -45 39.4361 -45 0.5C-45 -38.4361 -13.4361 -70 25.5 -70C64.4361 -70 96 -38.4361 96 0.5ZM-2.09455 0.5C-2.09455 15.7401 10.2599 28.0946 25.5 28.0946C40.7401 28.0946 53.0946 15.7401 53.0946 0.5C53.0946 -14.7401 40.7401 -27.0946 25.5 -27.0946C10.2599 -27.0946 -2.09455 -14.7401 -2.09455 0.5Z"
            fill="white" fill-opacity="0.25" />
    </g>
</svg>
