<svg width="130" height="93" viewBox="0 0 130 93" fill="none" xmlns="http://www.w3.org/2000/svg">
<g clip-path="url(#clip0_412_6318)">
<path d="M118.608 26.8227C121.153 13.768 110.754 5.42888 103.504 2.00612C101.939 1.26723 100.215 0.989871 98.4866 1.08634C93.1844 1.38235 82.8963 2.50774 69.6274 5.4909C49.6522 9.98181 14.0799 44.2249 61.6921 78.4681C109.304 112.711 115.05 45.067 118.608 26.8227Z" fill="white" fill-opacity="0.15"/>
<path d="M102.302 11.4931C105.906 9.71579 114.46 7.78204 119.845 14.2658C114.467 18.5783 112.741 9.18144 100.219 14.5699C99.2392 14.9916 98.2651 15.7712 98.3242 16.8364C98.4808 19.6598 103.994 20.9024 112.769 19.3709C115.597 18.8773 118.495 19.0056 121.353 19.2793C132.882 20.3835 128.096 8.89462 127.579 7.86736C127.006 6.72986 124.356 -4.92949 104.02 -1.30372C88.1949 0.189253 92.921 8.72046 92.7778 14.2658C92.6346 19.8111 92.6346 24.6455 97.0026 32.7501C101.371 40.8548 94.6396 42.7032 94.0667 39.0064C93.4939 35.3095 88.4098 39.0775 89.4123 44.4806C90.4148 49.8837 96.7878 57.1352 102.302 56.993C106.713 56.8793 97.7903 50.642 92.7778 47.5376C91.3934 47.4665 88.4527 47.6656 87.7653 49.0306C86.906 50.7368 85.4023 45.1204 74.5896 52.5142C63.7769 59.9079 83.8269 55.3579 87.7653 57.8462C91.7037 60.3345 104.879 55.5001 100.941 61.1876C97.7903 65.7376 92.7062 66.4959 90.558 66.3063C89.6748 66.1878 87.3929 66.0219 85.3307 66.3063C82.7528 66.6618 75.0909 63.6048 73.6587 61.1876C72.2266 58.7704 60.125 57.3485 57.1175 59.268C54.11 61.1876 50.9593 61.8274 59.6954 70.5719C68.4314 79.3164 80.8194 85.7149 86.4764 82.7289C92.7778 80.4539 90.916 85.9281 103.018 80.0985C115.119 74.2688 124.285 53.5806 123.855 47.5376C123.426 41.4946 125.645 35.8782 117.339 45.1915C109.033 54.5048 112.326 98.725 114.833 101" stroke="white" stroke-opacity="0.35" stroke-linecap="round"/>
</g>
<defs>
<clipPath id="clip0_412_6318">
<rect width="130" height="93" fill="white"/>
</clipPath>
</defs>
</svg>
