<svg width="92" height="33" viewBox="0 0 92 33" fill="none" xmlns="http://www.w3.org/2000/svg">
<path d="M5.4 3.888H3.564V2.304H25.74V3.888H7.56V15.984H26.496V17.568H5.4V3.888ZM0.9 26.064V24.48H29.808V26.064H0.9ZM55.3883 3.708H37.6042V2.124H57.5483V11.376H40.2322V17.568H58.5922V19.152H48.9443V25.56H62.2643V27.144H33.3562V25.56H46.7843V19.152H38.0722V11.376H36.4162V9.792H55.3883V3.708ZM72.2565 25.74C72.2565 24.78 72.4605 23.88 72.8685 23.04C73.2765 22.2 73.8885 21.48 74.7045 20.88C75.5205 20.28 76.5405 19.812 77.7645 19.476C78.9885 19.116 80.4285 18.936 82.0845 18.936C83.7405 18.936 85.1805 19.116 86.4045 19.476C87.6285 19.812 88.6485 20.28 89.4645 20.88C90.2805 21.48 90.8925 22.2 91.3005 23.04C91.7085 23.88 91.9125 24.78 91.9125 25.74C91.9125 26.7 91.7085 27.588 91.3005 28.404C90.8925 29.22 90.2805 29.928 89.4645 30.528C88.6485 31.128 87.6285 31.596 86.4045 31.932C85.1805 32.268 83.7405 32.436 82.0845 32.436C80.4285 32.436 78.9885 32.268 77.7645 31.932C76.5405 31.596 75.5205 31.128 74.7045 30.528C73.8885 29.928 73.2765 29.22 72.8685 28.404C72.4605 27.588 72.2565 26.7 72.2565 25.74ZM74.4165 25.668C74.4165 26.388 74.5605 27.06 74.8485 27.684C75.1365 28.308 75.5925 28.848 76.2165 29.304C76.8405 29.784 77.6325 30.156 78.5925 30.42C79.5765 30.708 80.7645 30.852 82.1565 30.852C83.5485 30.852 84.7245 30.708 85.6845 30.42C86.6445 30.156 87.4245 29.784 88.0245 29.304C88.6245 28.848 89.0565 28.308 89.3205 27.684C89.6085 27.06 89.7525 26.388 89.7525 25.668C89.7525 24.948 89.6085 24.276 89.3205 23.652C89.0565 23.028 88.6245 22.488 88.0245 22.032C87.4245 21.552 86.6445 21.18 85.6845 20.916C84.7245 20.652 83.5485 20.52 82.1565 20.52C80.7645 20.52 79.5765 20.652 78.5925 20.916C77.6325 21.18 76.8405 21.552 76.2165 22.032C75.5925 22.488 75.1365 23.028 74.8485 23.652C74.5605 24.276 74.4165 24.948 74.4165 25.668ZM89.5365 18.216V1.836H86.9445V0.251999H91.6965V18.216H89.5365ZM66.8565 8.568C66.8565 7.416 67.0245 6.384 67.3605 5.472C67.7205 4.536 68.2365 3.732 68.9085 3.06C69.6045 2.388 70.4445 1.872 71.4285 1.512C72.4365 1.152 73.5885 0.971998 74.8845 0.971998C76.1805 0.971998 77.3325 1.152 78.3405 1.512C79.3485 1.872 80.1885 2.388 80.8605 3.06C81.5565 3.732 82.0725 4.536 82.4085 5.472C82.7685 6.384 82.9485 7.416 82.9485 8.568C82.9485 9.72 82.7805 10.764 82.4445 11.7C82.1085 12.612 81.6045 13.404 80.9325 14.076C80.2605 14.748 79.4205 15.264 78.4125 15.624C77.4045 15.984 76.2285 16.164 74.8845 16.164C73.5165 16.164 72.3285 15.972 71.3205 15.588C70.3125 15.18 69.4725 14.64 68.8005 13.968C68.1525 13.272 67.6605 12.468 67.3245 11.556C67.0125 10.62 66.8565 9.624 66.8565 8.568ZM69.0165 8.568C69.0165 9.432 69.1245 10.236 69.3405 10.98C69.5805 11.7 69.9405 12.336 70.4205 12.888C70.9005 13.416 71.5125 13.836 72.2565 14.148C73.0005 14.436 73.8765 14.58 74.8845 14.58C76.9245 14.58 78.4125 14.04 79.3485 12.96C80.3085 11.88 80.7885 10.416 80.7885 8.568C80.7885 6.768 80.2845 5.316 79.2765 4.212C78.2925 3.108 76.8285 2.556 74.8845 2.556C72.9405 2.556 71.4765 3.108 70.4925 4.212C69.5085 5.316 69.0165 6.768 69.0165 8.568Z" fill="white"/>
</svg>
