<svg width="90" height="34" viewBox="0 0 90 34" fill="none" xmlns="http://www.w3.org/2000/svg">
<path d="M22.624 23.824V2.764H20.032V1.252H24.784V23.824H22.624ZM7.396 30.736H25.648V32.32H5.236V22.204H7.396V30.736ZM0.16 10.432C0.16 9.28 0.328 8.212 0.664 7.228C1.024 6.244 1.54 5.392 2.212 4.672C2.884 3.952 3.712 3.388 4.696 2.98C5.704 2.548 6.856 2.332 8.152 2.332C9.448 2.332 10.6 2.548 11.608 2.98C12.616 3.388 13.456 3.952 14.128 4.672C14.8 5.392 15.304 6.244 15.64 7.228C16 8.212 16.18 9.28 16.18 10.432C16.18 11.584 16.012 12.652 15.676 13.636C15.34 14.62 14.836 15.472 14.164 16.192C13.516 16.912 12.688 17.476 11.68 17.884C10.672 18.292 9.496 18.496 8.152 18.496C6.784 18.496 5.596 18.28 4.588 17.848C3.58 17.392 2.752 16.792 2.104 16.048C1.456 15.304 0.964 14.452 0.628 13.492C0.316 12.508 0.16 11.488 0.16 10.432ZM2.32 10.432C2.32 11.272 2.428 12.088 2.644 12.88C2.884 13.648 3.232 14.332 3.688 14.932C4.168 15.532 4.78 16.012 5.524 16.372C6.268 16.732 7.144 16.912 8.152 16.912C9.16 16.912 10.024 16.744 10.744 16.408C11.488 16.072 12.1 15.616 12.58 15.04C13.084 14.44 13.444 13.756 13.66 12.988C13.9 12.196 14.02 11.344 14.02 10.432C14.02 9.52 13.888 8.668 13.624 7.876C13.384 7.084 13.024 6.4 12.544 5.824C12.064 5.224 11.452 4.756 10.708 4.42C9.964 4.084 9.112 3.916 8.152 3.916C7.192 3.916 6.34 4.084 5.596 4.42C4.876 4.756 4.276 5.224 3.796 5.824C3.316 6.4 2.944 7.084 2.68 7.876C2.44 8.668 2.32 9.52 2.32 10.432ZM34.0563 3.196H32.2203V1.612H54.0723V11.26H34.0563V3.196ZM36.3603 31.528H55.4763V33.112H34.2003V27.064H32.4723V25.516H52.3083V21.448H33.8043V19.864H42.9843V16.012H29.5563V14.428H58.4283V16.012H45.1443V19.864H54.4683V27.1H36.3603V31.528ZM36.2163 9.64H51.9123V3.196H36.2163V9.64ZM62.1925 13.996C62.1925 12.844 62.4085 11.872 62.8405 11.08C63.2965 10.264 63.8725 9.604 64.5685 9.1C65.2645 8.596 66.0445 8.224 66.9085 7.984C67.7965 7.744 68.6605 7.624 69.5005 7.624C70.3645 7.624 71.2285 7.744 72.0925 7.984C72.9565 8.224 73.7365 8.596 74.4325 9.1C75.1525 9.604 75.7285 10.264 76.1605 11.08C76.6165 11.872 76.8445 12.844 76.8445 13.996C76.8445 15.028 76.6645 15.928 76.3045 16.696C75.9685 17.44 75.5125 18.076 74.9365 18.604C74.3605 19.108 73.7005 19.504 72.9565 19.792C72.2125 20.08 71.4445 20.272 70.6525 20.368V23.896L80.4085 23.428V25.012L59.6365 25.984V24.4L68.4925 24.004V20.404C67.6525 20.308 66.8485 20.104 66.0805 19.792C65.3365 19.48 64.6765 19.06 64.1005 18.532C63.5245 17.98 63.0565 17.332 62.6965 16.588C62.3605 15.844 62.1925 14.98 62.1925 13.996ZM64.3525 13.996C64.3525 14.86 64.5085 15.604 64.8205 16.228C65.1565 16.828 65.5765 17.332 66.0805 17.74C66.5845 18.124 67.1365 18.412 67.7365 18.604C68.3365 18.772 68.9245 18.856 69.5005 18.856C70.0525 18.856 70.6285 18.784 71.2285 18.64C71.8525 18.472 72.4165 18.196 72.9205 17.812C73.4245 17.428 73.8445 16.924 74.1805 16.3C74.5165 15.676 74.6845 14.908 74.6845 13.996C74.6845 13.108 74.5045 12.364 74.1445 11.764C73.8085 11.14 73.3765 10.636 72.8485 10.252C72.3445 9.868 71.7925 9.604 71.1925 9.46C70.5925 9.292 70.0285 9.208 69.5005 9.208C68.9965 9.208 68.4445 9.292 67.8445 9.46C67.2445 9.604 66.6805 9.868 66.1525 10.252C65.6485 10.636 65.2165 11.14 64.8565 11.764C64.5205 12.364 64.3525 13.108 64.3525 13.996ZM82.5325 28.54V2.62H79.9045V1.108H84.6565V13.996H89.7325V15.508H84.6565V28.54H82.5325ZM60.5725 6.256V4.708H68.3845V0.711999H70.5805V4.708H78.6805V6.256H60.5725Z" fill="white"/>
</svg>
