<svg width="390" height="104" viewBox="0 0 390 104" fill="none" xmlns="http://www.w3.org/2000/svg">
<g clip-path="url(#clip0_552_5699)">
<path d="M319 52C323.118 56.8254 331.882 66.781 334 68" stroke="black" stroke-opacity="0.4" stroke-linecap="round"/>
<path d="M367 77C369.889 78.75 376.533 82.4 380 83" stroke="black" stroke-opacity="0.4" stroke-linecap="round"/>
<path d="M338 76C339.429 77.1111 342.629 79.4667 344 80" stroke="black" stroke-opacity="0.4" stroke-linecap="round"/>
<path d="M312 94C313.333 94.3333 316.6 95.4 319 97" stroke="black" stroke-opacity="0.4" stroke-linecap="round"/>
<path d="M166.657 44.9408C149.792 26.2689 113.607 59.3018 97.6221 78.1523C87.3293 89.2544 123.343 85.3095 189.26 95.1881C255.178 105.067 254.581 86.6076 235.119 78.0524C215.658 69.4971 187.738 68.2806 166.657 44.9408Z" fill="black" fill-opacity="0.08"/>
<ellipse cx="232" cy="32.5" rx="25" ry="24.5" fill="black" fill-opacity="0.25"/>
<path d="M246.5 34C246.5 48.1217 235.942 59.5 223 59.5C210.058 59.5 199.5 48.1217 199.5 34C199.5 19.8783 210.058 8.5 223 8.5C235.942 8.5 246.5 19.8783 246.5 34Z" stroke="black" stroke-opacity="0.3"/>
<path d="M97 80.1343C103.03 77.8001 114.83 70.9824 119.493 60.7488C119.945 59.7567 122.735 59.5195 123.7 60.0257C128.266 62.4189 138.95 58.1047 159.975 31.2375C160.619 30.4138 162.15 31.0133 162.155 32.0592C162.2 40.6052 166.521 52.829 184.023 54.4682C209.716 56.8744 209.716 83.3426 235.409 83.3426C261.101 83.3426 280.992 84.1446 285.965 89.7591C289.943 94.2506 303.646 94.3041 310 93.7694" stroke="black" stroke-opacity="0.4" stroke-linecap="round"/>
<path d="M220 90C241.394 83.253 285.664 64.6988 288.297 44.4578C291.655 27.2484 295.775 25.6464 298.325 23.9933C299.236 23.4031 301.812 23.5461 302.183 24.5661C304.304 30.4068 307.433 37.4673 309.949 38.4409C310.284 38.5707 310.622 38.3631 310.804 38.0528C312.841 34.572 316.862 28.6345 318.743 29.2771C321.211 30.1205 339.314 57.1084 345.074 59.6386C350.834 62.1687 355.771 77.3494 364 75.6626" stroke="black" stroke-opacity="0.4" stroke-linecap="round"/>
<path d="M313 44C313.667 44.2222 315 44.7333 315 45" stroke="black" stroke-opacity="0.4" stroke-linecap="round"/>
<path d="M274.879 49.5279C244.648 66.5103 208.447 82.9955 194.125 89.1152C189.072 97.7672 259.919 77.9379 287.522 83.08C315.124 88.2221 389.818 105.139 343.162 68.6198C296.506 32.1001 312.666 28.3 274.879 49.5279Z" fill="black" fill-opacity="0.1"/>
</g>
<defs>
<clipPath id="clip0_552_5699">
<rect width="390" height="104" fill="white"/>
</clipPath>
</defs>
</svg>
