<svg width="390" height="101" viewBox="0 0 390 101" fill="none" xmlns="http://www.w3.org/2000/svg">
<g clip-path="url(#clip0_552_5698)">
<path d="M323 8C312.642 22 296.991 52.6458 307.462 69C315.786 82 318.006 75.5 323 98" stroke="black" stroke-opacity="0.25" stroke-width="2" stroke-linecap="round"/>
<path d="M110.24 14.0813C126.796 18.2975 133.408 14.9428 135.343 10.0269C137.696 4.04602 132.403 -1.78538 126.086 -2.97144C107.393 -6.48134 64.7664 -8 59.9883 -8C53.8465 -8 51.6131 -3.48337 53.8465 8.56099C56.0799 20.6053 76.7387 5.5499 110.24 14.0813Z" fill="black" fill-opacity="0.1"/>
<path d="M203.771 0C196.457 14.9191 199.158 45.6624 268.473 49.2832C355.117 53.8092 377.622 71.9133 390 87" stroke="black" stroke-opacity="0.4" stroke-width="2"/>
<path d="M313.552 42.7092C315.159 33.9853 297.054 34.0757 280.558 36.1839C270.161 37.5125 260.955 43.2156 252.457 49.3496C238.162 59.6672 230.864 62.078 282.773 69.6305C348.857 79.2453 310.836 57.4519 313.552 42.7092Z" fill="black" fill-opacity="0.1"/>
<path d="M188.597 41C209.178 51.3678 235.858 70.6757 177.932 64.9649C105.524 57.8264 82.5111 22.6439 -3.22473e-06 55.2769" stroke="black" stroke-opacity="0.25" stroke-width="2" stroke-linecap="round"/>
</g>
<defs>
<clipPath id="clip0_552_5698">
<rect width="390" height="101" fill="white"/>
</clipPath>
</defs>
</svg>
