<svg width="390" height="121" viewBox="0 0 390 121" fill="none" xmlns="http://www.w3.org/2000/svg">
<g clip-path="url(#clip0_552_5700)">
<path d="M286.698 31.4931C283.094 29.7158 274.54 27.782 269.155 34.2658C274.533 38.5783 276.259 29.1814 288.781 34.5699C289.761 34.9916 290.735 35.7712 290.676 36.8364C290.519 39.6598 285.006 40.9024 276.231 39.3709C273.403 38.8773 270.505 39.0056 267.647 39.2793C256.118 40.3835 260.904 28.8946 261.421 27.8674C261.994 26.7299 264.644 15.0705 284.98 18.6963C300.805 20.1893 296.079 28.7205 296.222 34.2658C296.365 39.8111 296.365 44.6455 291.997 52.7501C287.629 60.8548 294.36 62.7032 294.933 59.0064C295.506 55.3095 300.59 59.0775 299.588 64.4806C298.585 69.8837 292.212 77.1352 286.698 76.993C282.287 76.8793 291.21 70.642 296.222 67.5376C297.607 67.4665 300.547 67.6656 301.235 69.0306C302.094 70.7368 303.598 65.1204 314.41 72.5142C325.223 79.9079 305.173 75.3579 301.235 77.8462C297.296 80.3345 284.121 75.5001 288.059 81.1876C291.21 85.7376 296.294 86.4959 298.442 86.3063C299.325 86.1878 301.607 86.0219 303.669 86.3063C306.247 86.6618 313.909 83.6048 315.341 81.1876C316.773 78.7704 328.875 77.3485 331.882 79.268C334.89 81.1876 338.041 81.8274 329.305 90.5719C320.569 99.3164 308.181 105.715 302.524 102.729C296.222 100.454 298.084 105.928 285.982 100.098C273.881 94.2688 264.715 73.5806 265.145 67.5376C265.574 61.4946 263.355 55.8782 271.661 65.1915C279.967 74.5048 276.674 118.725 274.167 121" stroke="black" stroke-opacity="0.35" stroke-linecap="round"/>
<path d="M270.392 46.8227C267.847 33.768 278.246 25.4289 285.496 22.0061C287.061 21.2672 288.785 20.9899 290.513 21.0863C295.816 21.3823 306.104 22.5077 319.373 25.4909C339.348 29.9818 374.92 64.2249 327.308 98.4681C279.696 132.711 273.95 65.067 270.392 46.8227Z" fill="black" fill-opacity="0.15"/>
</g>
<defs>
<clipPath id="clip0_552_5700">
<rect width="390" height="121" fill="white"/>
</clipPath>
</defs>
</svg>
