<svg width="209" height="93" viewBox="0 0 209 93" fill="none" xmlns="http://www.w3.org/2000/svg">
<g clip-path="url(#clip0_409_6309)">
<path d="M58.6025 46.9196C46.7196 33.7635 21.2238 57.0383 9.96125 70.3202C2.70909 78.1426 28.0839 75.3631 74.5289 82.3234C120.974 89.2838 120.553 76.2777 106.841 70.2498C93.1282 64.2218 73.4561 63.3647 58.6025 46.9196Z" fill="white" fill-opacity="0.08"/>
<path d="M134.855 43.7097C113.555 55.6753 88.0478 67.2906 77.9568 71.6026C74.396 77.6987 124.315 63.7271 143.763 67.3502C163.212 70.9733 215.84 82.8932 182.967 57.1617C150.094 31.4302 161.48 28.7526 134.855 43.7097Z" fill="white" fill-opacity="0.1"/>
<path d="M162 40C162.333 40.2222 163 40.7333 163 41" stroke="white" stroke-opacity="0.4" stroke-linecap="round"/>
<path d="M96 72C111.154 67.2771 142.512 54.2892 144.377 40.1205C146.297 30.3988 148.568 27.7923 150.322 26.5401C151.203 25.9112 154.311 26.485 154.704 27.4939C156.126 31.1488 157.996 35.0461 159.563 35.8414C159.882 36.0033 160.223 35.797 160.407 35.4901C161.874 33.0375 164.637 29.053 165.943 29.494C167.691 30.0843 180.514 48.9759 184.594 50.747C188.674 52.5181 192.171 63.1446 198 61.9639" stroke="white" stroke-opacity="0.4" stroke-linecap="round"/>
<path d="M9 72.1259C12.9843 70.5663 20.5456 66.1961 24.1767 59.6431C24.7062 58.6874 28.1357 58.1184 29.2253 58.2C32.9498 58.479 40.1146 54.2066 52.593 38.2759C53.2391 37.451 54.8561 38.05 54.929 39.0954C55.3453 45.0655 58.7516 52.7564 70.284 53.8486C88.3774 55.5621 88.3774 74.4106 106.471 74.4106C124.564 74.4106 138.572 74.9818 142.074 78.98C144.875 82.1785 154.525 82.2166 159 81.8358" stroke="white" stroke-opacity="0.4" stroke-linecap="round"/>
<path d="M114.5 33C114.5 42.6923 107.086 50.5 98 50.5C88.9138 50.5 81.5 42.6923 81.5 33C81.5 23.3077 88.9138 15.5 98 15.5C107.086 15.5 114.5 23.3077 114.5 33Z" stroke="white" stroke-opacity="0.3"/>
<ellipse cx="100.5" cy="30" rx="17.5" ry="17" fill="white" fill-opacity="0.3"/>
<path d="M6.56067 74L6.00004 75.1213" stroke="white" stroke-opacity="0.3" stroke-linecap="round"/>
<path d="M161 82C161.952 82.2222 164.286 82.9333 166 84" stroke="white" stroke-opacity="0.4" stroke-linecap="round"/>
<path d="M179 62C179.952 63.1111 182.086 65.4667 183 66" stroke="white" stroke-opacity="0.4" stroke-linecap="round"/>
<path d="M200 63C202 64.4583 206.6 67.5 209 68" stroke="white" stroke-opacity="0.4" stroke-linecap="round"/>
<path d="M166 45C168.745 48.3175 174.588 55.1619 176 56" stroke="white" stroke-opacity="0.4" stroke-linecap="round"/>
</g>
<defs>
<clipPath id="clip0_409_6309">
<rect width="209" height="93" fill="white"/>
</clipPath>
</defs>
</svg>
