<svg width="136" height="93" viewBox="0 0 136 93" fill="none" xmlns="http://www.w3.org/2000/svg">
<g clip-path="url(#clip0_412_6332)">
<path d="M85.0199 59.5939C91.5342 50.3265 97.4453 54.1142 99.8033 59.3732C100.985 62.0097 102.12 64.8771 102.829 67.6781C103.91 71.9515 103.479 78.1459 100.915 83.2775C96.4446 92.2258 93.3849 86.4818 82.7384 84.5299C72.0918 82.5781 74.6939 74.2839 85.0199 59.5939Z" fill="white" fill-opacity="0.25"/>
<path d="M124.728 52.9507C124.987 51.2132 122.912 49.0528 112.536 54.3104C99.5664 60.8825 95.9349 53.1774 98.7882 47.2851C101.642 41.3929 102.679 34.5942 103.198 34.8208C103.429 34.9218 106.892 34.9337 110.84 34.9114C116.358 34.8802 121.52 37.816 123.601 42.9265C124.788 45.8408 125.967 49.1707 126.803 52.4975C129.034 61.376 111.606 54.1146 111.184 75.7939C111.143 77.9012 111.71 79.9979 112.677 81.8705C114.603 85.5975 115.748 86.6131 122.134 87.171C129.916 87.8508 102.939 87.8508 102.16 87.171C101.382 86.4911 108.126 87.171 110.98 81.9586C113.833 76.7463 113.055 66.0949 110.202 63.3754C107.348 60.656 90.2282 47.5118 83.2245 69.9475C81.9276 77.1995 82.187 68.8144 82.187 64.0553C82.187 60.248 82.187 44.7923 82.187 37.5403C81.9564 35.7944 82.3407 31.7442 85.3443 28.1917C86.1193 27.2751 86.9409 26.3843 87.594 25.3773C90.0745 21.5523 89.45 21.823 89.45 19.1838C89.45 17.5787 89.45 12.6314 89.45 8.89403C89.45 6.28028 90.6328 4.04945 93.2462 4.00309C93.3611 4.00105 93.4791 4 93.6003 4C97.2318 4 97.7506 4.67987 98.01 5.13312C98.2694 5.58637 98.5288 8.07923 92.0439 7.85261C85.5591 7.62598 89.1906 4.9065 90.747 4.9065C91.7499 4.9065 94.5034 4.9065 96.4855 4.9065C97.3145 4.9065 98.2552 5.05347 98.6336 5.79101C98.8234 6.16094 98.8622 6.60166 98.5626 7.0716C98.1815 7.66925 97.7506 8.27693 97.7506 8.98572V8.98572C97.7506 9.89222 97.7506 16.7665 97.7506 20.0903C97.7506 21.45 98.1138 24.4868 99.5664 25.7559C100.349 26.4393 101.467 27.8542 102.508 29.286C104.037 31.3888 104.841 33.9187 104.929 36.5171C104.977 37.9468 105.014 39.5187 105.014 40.9397C105.014 44.0218 105.014 69.5698 105.014 81.9586C105.187 83.3183 104.339 86.0378 99.5664 86.0378C95.9477 86.0378 91.3051 86.0378 88.1031 86.0378C86.4182 86.0378 84.6281 85.8573 83.4438 84.6588C82.5463 83.7504 81.8122 82.4126 81.9276 80.5989C82.187 76.5196 78.8148 73.3469 74.1457 75.1599C69.4766 76.9729 70.3983 84.9706 79.0742 82.8651C87.7048 80.7706 85.2568 93.0009 77.4641 90.7516C76.0672 90.3484 73.764 88.3818 73.2002 87.0416V87.0416C71.2405 82.3826 74.6353 95.5231 69.6122 94.9614C69.1624 94.9111 68.6851 94.8101 68.1796 94.6495C62.473 92.8365 65.5857 85.8112 66.8827 86.0378C68.1797 86.2645 65.5857 90.5703 62.9917 90.5703C60.3978 90.5703 55.7287 89.4372 58.0632 84.4515C60.3978 79.4657 65.3264 81.9586 66.3639 82.8651C67.0976 83.5061 72.8487 87.3976 74.9239 81.732C76.9991 76.0664 67.1421 76.0664 65.8451 78.3326C64.5481 80.5989 67.4015 83.0917 68.1796 76.5196C68.9578 69.9475 57.0257 71.5339 57.0257 75.6131C57.0257 79.6924 59.879 81.2787 60.6572 80.1456C61.4354 79.0125 56.5069 78.3326 54.9505 79.6924C53.4717 80.9843 52.8754 83.545 54.6911 85.1313C56.5069 86.7177 52.8753 87.8508 54.6911 84.4515C56.5069 81.0521 52.616 78.7859 49.2438 79.0125C45.8717 79.2391 44.3153 86.4911 48.9844 86.9443C53.6536 87.3976 47.6875 82.8651 45.0935 84.6781C42.7388 86.3239 39.3152 91.5181 45.4957 92.6316C46.9326 92.8904 48.4391 92.7131 49.7617 92.0948C55.0185 89.6377 50.8002 85.7811 50.8002 89.6638C50.8002 93.9697 57.8039 96.4625 60.6572 91.0236" stroke="white" stroke-opacity="0.35" stroke-linecap="round"/>
<path d="M109.907 51.3212C114.109 52.3383 118.805 51.3539 122.054 50.2216C124.014 49.5384 126.062 48.9183 128.101 49.3114C131.945 50.0529 136.388 52.268 135.973 57.511C135.299 66.022 117.772 62.3468 105.863 61.3796C93.9536 60.4125 102.717 49.5803 109.907 51.3212Z" fill="white" fill-opacity="0.2"/>
</g>
<defs>
<clipPath id="clip0_412_6332">
<rect width="136" height="93" fill="white"/>
</clipPath>
</defs>
</svg>
