<svg width="92" height="34" viewBox="0 0 92 34" fill="none" xmlns="http://www.w3.org/2000/svg">
<path d="M5.508 27.46C5.508 25.66 6.228 24.244 7.668 23.212C9.108 22.18 11.304 21.604 14.256 21.484V17.884H0.936V16.3H29.808V17.884H16.416V21.484C19.368 21.604 21.564 22.18 23.004 23.212C24.444 24.244 25.164 25.66 25.164 27.46C25.164 29.404 24.348 30.88 22.716 31.888C21.108 32.92 18.648 33.436 15.336 33.436C12.024 33.436 9.552 32.92 7.92 31.888C6.312 30.88 5.508 29.404 5.508 27.46ZM7.668 27.388C7.668 28.828 8.256 29.932 9.432 30.7C10.632 31.468 12.624 31.852 15.408 31.852C18.168 31.852 20.124 31.468 21.276 30.7C22.428 29.932 23.004 28.828 23.004 27.388C23.004 26.668 22.86 26.044 22.572 25.516C22.308 24.964 21.876 24.508 21.276 24.148C20.676 23.788 19.896 23.512 18.936 23.32C17.976 23.128 16.8 23.032 15.408 23.032C12.624 23.032 10.632 23.404 9.432 24.148C8.256 24.892 7.668 25.972 7.668 27.388ZM22.14 5.104V11.296H26.856V12.88H3.816V11.296H8.532V5.104H10.692V11.296H19.98V5.104H22.14ZM4.176 3.556V1.972H26.496V3.556H4.176ZM37.4963 26.74C37.4963 25.78 37.7003 24.88 38.1083 24.04C38.5163 23.2 39.1283 22.48 39.9443 21.88C40.7603 21.28 41.7803 20.812 43.0043 20.476C44.2283 20.116 45.6683 19.936 47.3243 19.936C48.9803 19.936 50.4203 20.116 51.6443 20.476C52.8683 20.812 53.8883 21.28 54.7043 21.88C55.5203 22.48 56.1323 23.2 56.5403 24.04C56.9483 24.88 57.1523 25.78 57.1523 26.74C57.1523 27.7 56.9483 28.588 56.5403 29.404C56.1323 30.22 55.5203 30.928 54.7043 31.528C53.8883 32.128 52.8683 32.596 51.6443 32.932C50.4203 33.268 48.9803 33.436 47.3243 33.436C45.6683 33.436 44.2283 33.268 43.0043 32.932C41.7803 32.596 40.7603 32.128 39.9443 31.528C39.1283 30.928 38.5163 30.22 38.1083 29.404C37.7003 28.588 37.4963 27.7 37.4963 26.74ZM39.6562 26.668C39.6562 27.388 39.8003 28.06 40.0883 28.684C40.3763 29.308 40.8323 29.848 41.4563 30.304C42.0803 30.784 42.8723 31.156 43.8323 31.42C44.8163 31.708 46.0043 31.852 47.3963 31.852C48.7883 31.852 49.9643 31.708 50.9243 31.42C51.8843 31.156 52.6643 30.784 53.2643 30.304C53.8643 29.848 54.2963 29.308 54.5603 28.684C54.8483 28.06 54.9923 27.388 54.9923 26.668C54.9923 25.948 54.8483 25.276 54.5603 24.652C54.2963 24.028 53.8643 23.488 53.2643 23.032C52.6643 22.552 51.8843 22.18 50.9243 21.916C49.9643 21.652 48.7883 21.52 47.3963 21.52C46.0043 21.52 44.8163 21.652 43.8323 21.916C42.8723 22.18 42.0803 22.552 41.4563 23.032C40.8323 23.488 40.3763 24.028 40.0883 24.652C39.8003 25.276 39.6562 25.948 39.6562 26.668ZM48.1163 6.256H54.7763V2.764H52.1843V1.252H56.9363V19.432H54.7763V14.428H48.1163V12.844H54.7763V7.84H48.1163V6.256ZM32.5643 2.548H46.1363V7.588C46.1363 8.86 45.9443 10.06 45.5603 11.188C45.2003 12.292 44.7323 13.312 44.1563 14.248C43.5803 15.184 42.9443 16.024 42.2483 16.768C41.5763 17.488 40.9283 18.1 40.3043 18.604L39.1523 17.488C39.4643 17.2 39.8843 16.768 40.4123 16.192C40.9643 15.592 41.5043 14.872 42.0323 14.032C42.5603 13.168 43.0163 12.22 43.4003 11.188C43.7843 10.132 43.9763 9.004 43.9763 7.804V4.06H32.5643V2.548ZM64.1925 13.996C64.1925 12.844 64.4085 11.872 64.8405 11.08C65.2965 10.264 65.8725 9.604 66.5685 9.1C67.2645 8.596 68.0445 8.224 68.9085 7.984C69.7965 7.744 70.6605 7.624 71.5005 7.624C72.3645 7.624 73.2285 7.744 74.0925 7.984C74.9565 8.224 75.7365 8.596 76.4325 9.1C77.1525 9.604 77.7285 10.264 78.1605 11.08C78.6165 11.872 78.8445 12.844 78.8445 13.996C78.8445 15.028 78.6645 15.928 78.3045 16.696C77.9685 17.44 77.5125 18.076 76.9365 18.604C76.3605 19.108 75.7005 19.504 74.9565 19.792C74.2125 20.08 73.4445 20.272 72.6525 20.368V23.896L82.4085 23.428V25.012L61.6365 25.984V24.4L70.4925 24.004V20.404C69.6525 20.308 68.8485 20.104 68.0805 19.792C67.3365 19.48 66.6765 19.06 66.1005 18.532C65.5245 17.98 65.0565 17.332 64.6965 16.588C64.3605 15.844 64.1925 14.98 64.1925 13.996ZM66.3525 13.996C66.3525 14.86 66.5085 15.604 66.8205 16.228C67.1565 16.828 67.5765 17.332 68.0805 17.74C68.5845 18.124 69.1365 18.412 69.7365 18.604C70.3365 18.772 70.9245 18.856 71.5005 18.856C72.0525 18.856 72.6285 18.784 73.2285 18.64C73.8525 18.472 74.4165 18.196 74.9205 17.812C75.4245 17.428 75.8445 16.924 76.1805 16.3C76.5165 15.676 76.6845 14.908 76.6845 13.996C76.6845 13.108 76.5045 12.364 76.1445 11.764C75.8085 11.14 75.3765 10.636 74.8485 10.252C74.3445 9.868 73.7925 9.604 73.1925 9.46C72.5925 9.292 72.0285 9.208 71.5005 9.208C70.9965 9.208 70.4445 9.292 69.8445 9.46C69.2445 9.604 68.6805 9.868 68.1525 10.252C67.6485 10.636 67.2165 11.14 66.8565 11.764C66.5205 12.364 66.3525 13.108 66.3525 13.996ZM84.5325 28.54V2.62H81.9045V1.108H86.6565V13.996H91.7325V15.508H86.6565V28.54H84.5325ZM62.5725 6.256V4.708H70.3845V0.711999H72.5805V4.708H80.6805V6.256H62.5725Z" fill="white"/>
</svg>
