<svg width="95" height="34" viewBox="0 0 95 34" fill="none" xmlns="http://www.w3.org/2000/svg">
<path d="M6.416 26.74C6.416 25.78 6.62 24.88 7.028 24.04C7.436 23.2 8.048 22.48 8.864 21.88C9.68 21.28 10.7 20.812 11.924 20.476C13.148 20.116 14.588 19.936 16.244 19.936C17.9 19.936 19.34 20.116 20.564 20.476C21.788 20.812 22.808 21.28 23.624 21.88C24.44 22.48 25.052 23.2 25.46 24.04C25.868 24.88 26.072 25.78 26.072 26.74C26.072 27.7 25.868 28.588 25.46 29.404C25.052 30.22 24.44 30.928 23.624 31.528C22.808 32.128 21.788 32.596 20.564 32.932C19.34 33.268 17.9 33.436 16.244 33.436C14.588 33.436 13.148 33.268 11.924 32.932C10.7 32.596 9.68 32.128 8.864 31.528C8.048 30.928 7.436 30.22 7.028 29.404C6.62 28.588 6.416 27.7 6.416 26.74ZM8.576 26.668C8.576 27.388 8.72 28.06 9.008 28.684C9.296 29.308 9.752 29.848 10.376 30.304C11 30.784 11.792 31.156 12.752 31.42C13.736 31.708 14.924 31.852 16.316 31.852C17.708 31.852 18.884 31.708 19.844 31.42C20.804 31.156 21.584 30.784 22.184 30.304C22.784 29.848 23.216 29.308 23.48 28.684C23.768 28.06 23.912 27.388 23.912 26.668C23.912 25.948 23.768 25.276 23.48 24.652C23.216 24.028 22.784 23.488 22.184 23.032C21.584 22.552 20.804 22.18 19.844 21.916C18.884 21.652 17.708 21.52 16.316 21.52C14.924 21.52 13.736 21.652 12.752 21.916C11.792 22.18 11 22.552 10.376 23.032C9.752 23.488 9.296 24.028 9.008 24.652C8.72 25.276 8.576 25.948 8.576 26.668ZM10.412 4.276V5.788C10.412 6.796 10.484 7.66 10.628 8.38C10.796 9.076 11.06 9.772 11.42 10.468C11.78 11.188 12.2 11.812 12.68 12.34C13.184 12.868 13.736 13.348 14.336 13.78C14.936 14.212 15.584 14.62 16.28 15.004C16.976 15.364 17.696 15.736 18.44 16.12L17.54 17.524C15.692 16.756 14.072 15.856 12.68 14.824C11.312 13.768 10.22 12.544 9.404 11.152C8.876 12.16 8.288 13.036 7.64 13.78C7.016 14.524 6.344 15.184 5.624 15.76C4.928 16.336 4.196 16.84 3.428 17.272C2.684 17.68 1.94 18.064 1.196 18.424L0.188 16.84C2.036 15.976 3.512 15.076 4.616 14.14C5.72 13.204 6.584 12.088 7.208 10.792C7.544 10.12 7.796 9.34 7.964 8.452C8.132 7.54 8.216 6.664 8.216 5.824V4.276H1.304V2.692H17.252V4.276H10.412ZM16.892 9.028H23.768V2.836H21.176V1.252H25.928V19.18H23.768V10.612H16.892V9.028ZM36.8562 3.196H35.0202V1.612H56.8723V11.26H36.8562V3.196ZM39.1602 31.528H58.2763V33.112H37.0002V27.064H35.2722V25.516H55.1082V21.448H36.6042V19.864H45.7843V16.012H32.3562V14.428H61.2283V16.012H47.9443V19.864H57.2682V27.1H39.1602V31.528ZM39.0162 9.64H54.7123V3.196H39.0162V9.64ZM66.7925 13.996C66.7925 12.844 67.0085 11.872 67.4405 11.08C67.8965 10.264 68.4725 9.604 69.1685 9.1C69.8645 8.596 70.6445 8.224 71.5085 7.984C72.3965 7.744 73.2605 7.624 74.1005 7.624C74.9645 7.624 75.8285 7.744 76.6925 7.984C77.5565 8.224 78.3365 8.596 79.0325 9.1C79.7525 9.604 80.3285 10.264 80.7605 11.08C81.2165 11.872 81.4445 12.844 81.4445 13.996C81.4445 15.028 81.2645 15.928 80.9045 16.696C80.5685 17.44 80.1125 18.076 79.5365 18.604C78.9605 19.108 78.3005 19.504 77.5565 19.792C76.8125 20.08 76.0445 20.272 75.2525 20.368V23.896L85.0085 23.428V25.012L64.2365 25.984V24.4L73.0925 24.004V20.404C72.2525 20.308 71.4485 20.104 70.6805 19.792C69.9365 19.48 69.2765 19.06 68.7005 18.532C68.1245 17.98 67.6565 17.332 67.2965 16.588C66.9605 15.844 66.7925 14.98 66.7925 13.996ZM68.9525 13.996C68.9525 14.86 69.1085 15.604 69.4205 16.228C69.7565 16.828 70.1765 17.332 70.6805 17.74C71.1845 18.124 71.7365 18.412 72.3365 18.604C72.9365 18.772 73.5245 18.856 74.1005 18.856C74.6525 18.856 75.2285 18.784 75.8285 18.64C76.4525 18.472 77.0165 18.196 77.5205 17.812C78.0245 17.428 78.4445 16.924 78.7805 16.3C79.1165 15.676 79.2845 14.908 79.2845 13.996C79.2845 13.108 79.1045 12.364 78.7445 11.764C78.4085 11.14 77.9765 10.636 77.4485 10.252C76.9445 9.868 76.3925 9.604 75.7925 9.46C75.1925 9.292 74.6285 9.208 74.1005 9.208C73.5965 9.208 73.0445 9.292 72.4445 9.46C71.8445 9.604 71.2805 9.868 70.7525 10.252C70.2485 10.636 69.8165 11.14 69.4565 11.764C69.1205 12.364 68.9525 13.108 68.9525 13.996ZM87.1325 28.54V2.62H84.5045V1.108H89.2565V13.996H94.3325V15.508H89.2565V28.54H87.1325ZM65.1725 6.256V4.708H72.9845V0.711999H75.1805V4.708H83.2805V6.256H65.1725Z" fill="white"/>
</svg>
