<svg width="126" height="33" viewBox="0 0 126 33" fill="none" xmlns="http://www.w3.org/2000/svg">
<path d="M7.18 30.528H25.792V32.112H5.02V25.632H3.292V24.084H22.624V19.836H4.624V18.252H24.784V25.668H7.18V30.528ZM22.624 16.452V1.764H20.032V0.251999H24.784V16.452H22.624ZM0.16 8.064C0.16 5.76 0.856 3.984 2.248 2.736C3.664 1.464 5.584 0.827998 8.008 0.827998C10.456 0.827998 12.376 1.464 13.768 2.736C15.184 3.984 15.892 5.76 15.892 8.064C15.892 10.368 15.208 12.144 13.84 13.392C12.496 14.64 10.552 15.264 8.008 15.264C6.736 15.264 5.608 15.096 4.624 14.76C3.64 14.4 2.812 13.908 2.14 13.284C1.492 12.636 1 11.868 0.664 10.98C0.328 10.092 0.16 9.12 0.16 8.064ZM2.32 8.064C2.32 9.744 2.8 11.1 3.76 12.132C4.72 13.164 6.136 13.68 8.008 13.68C9.856 13.68 11.272 13.2 12.256 12.24C13.24 11.256 13.732 9.864 13.732 8.064C13.732 6.24 13.216 4.848 12.184 3.888C11.176 2.904 9.784 2.412 8.008 2.412C6.256 2.412 4.864 2.904 3.832 3.888C2.824 4.848 2.32 6.24 2.32 8.064ZM31.7882 13.248V11.628H44.4603V3.492H32.8322V1.908H46.5842V13.248H35.7842V22.716L50.6883 21.96V23.544L33.6242 24.408V13.248H31.7882ZM48.4562 11.412H55.1163V1.764H52.4883V0.251999H57.2402V27.684H55.1163V12.924H48.4562V11.412ZM63.8125 26.316V24.768H92.6845V26.316H63.8125ZM66.5845 16.596C67.6165 16.236 68.6245 15.768 69.6085 15.192C70.6165 14.616 71.5525 14.004 72.4165 13.356C73.2805 12.684 74.0365 12 74.6845 11.304C75.3325 10.608 75.8125 9.936 76.1245 9.288C76.4605 8.616 76.7005 7.968 76.8445 7.344C76.9885 6.696 77.0605 5.964 77.0605 5.148V1.548H79.3285V5.112C79.3285 5.592 79.3405 6.024 79.3645 6.408C79.3885 6.768 79.4365 7.104 79.5085 7.416C79.5805 7.728 79.6765 8.04 79.7965 8.352C79.9165 8.64 80.0725 8.952 80.2645 9.288C80.7205 10.056 81.2965 10.8 81.9925 11.52C82.7125 12.24 83.5045 12.924 84.3685 13.572C85.2325 14.196 86.1325 14.772 87.0685 15.3C88.0045 15.804 88.9285 16.236 89.8405 16.596L88.9405 18.108C87.9325 17.772 86.9005 17.316 85.8445 16.74C84.7885 16.164 83.7685 15.516 82.7845 14.796C81.8245 14.052 80.9485 13.272 80.1565 12.456C79.3645 11.64 78.7405 10.836 78.2845 10.044C77.8765 10.884 77.2405 11.724 76.3765 12.564C75.5365 13.404 74.6005 14.196 73.5685 14.94C72.5605 15.66 71.5285 16.308 70.4725 16.884C69.4165 17.46 68.4565 17.892 67.5925 18.18L66.5845 16.596ZM100.409 3.744H98.5728V2.196H120.749V3.744H102.569V9.216H120.749V10.8H102.569V16.236H121.397V17.82H100.409V3.744ZM96.2688 25.92V24.336H125.105V25.92H96.2688Z" fill="white"/>
</svg>
